<?xml version="1.0" standalone="no"?>
<!DOCTYPE svg PUBLIC "-//W3C//DTD SVG 20010904//EN"
 "http://www.w3.org/TR/2001/REC-SVG-20010904/DTD/svg10.dtd">
<svg version="1.0" xmlns="http://www.w3.org/2000/svg"
 width="1280.000000pt" height="1022.000000pt" viewBox="0 0 1280.000000 1022.000000"
 preserveAspectRatio="xMidYMid meet">
<metadata>
Created by potrace 1.15, written by Peter Selinger 2001-2017
</metadata>
<g transform="translate(0.000000,1022.000000) scale(0.100000,-0.100000)"
fill="#000000" stroke="none">
<path d="M11565 10206 c-130 -41 -215 -126 -201 -202 4 -18 25 -72 48 -121 65
-138 64 -211 -2 -311 -45 -66 -47 -81 -25 -157 l16 -53 -46 -92 c-72 -143
-107 -188 -219 -283 -225 -190 -357 -347 -589 -697 -63 -96 -153 -218 -200
-272 -91 -103 -88 -98 -182 -363 -83 -234 -169 -385 -217 -385 -18 0 -97 88
-143 159 -97 151 -120 217 -134 387 -13 159 -45 290 -107 431 -70 161 -81 199
-94 308 -17 142 -32 165 -107 165 -25 0 -43 -8 -64 -29 -44 -44 -40 -88 32
-308 l61 -188 8 -255 c38 -1140 37 -1189 -15 -1389 -21 -78 -25 -119 -25 -230
0 -90 -4 -131 -10 -121 -5 8 -12 35 -16 60 -32 240 -105 426 -253 647 -99 147
-180 243 -308 362 -224 208 -404 311 -617 356 -393 81 -815 -52 -1091 -344
-215 -227 -465 -470 -524 -509 -160 -106 -283 -104 -761 17 -190 48 -291 86
-402 152 -229 136 -392 333 -468 562 -28 86 -22 101 70 190 38 37 76 80 85 96
24 48 45 150 45 226 0 113 -61 215 -128 215 -24 0 -36 -10 -149 -134 -32 -36
-71 -65 -106 -81 -65 -30 -186 -43 -249 -27 -24 6 -68 16 -98 23 -30 6 -89 21
-130 32 -141 37 -195 46 -274 47 -134 0 -264 -46 -357 -129 -52 -46 -85 -61
-132 -61 -49 0 -72 22 -153 146 -81 122 -112 154 -153 154 -37 0 -84 -32 -112
-76 -65 -106 17 -387 155 -526 l36 -37 -32 -46 -33 -47 -1 -151 c-1 -130 -4
-160 -22 -207 -37 -93 -29 -133 52 -257 80 -125 83 -134 89 -289 4 -105 11
-154 25 -192 l20 -52 -31 -1 c-30 -2 -29 -2 7 -8 51 -8 56 -26 12 -41 -45 -15
-234 -140 -266 -176 -23 -27 -23 -26 12 3 58 49 146 107 223 146 l70 35 28
-24 c16 -13 37 -24 47 -24 29 0 50 -28 50 -65 0 -38 35 -71 105 -99 l40 -16
-1 -122 c-1 -67 -5 -123 -10 -125 -5 -2 -34 13 -64 33 -30 19 -90 53 -132 74
-273 139 -578 113 -820 -70 -66 -50 -67 -50 -112 -40 -77 17 -266 23 -371 11
-171 -20 -308 -25 -347 -12 -19 6 -48 25 -64 42 l-29 30 -7 187 c-7 221 -19
271 -108 460 -93 200 -103 245 -104 509 -1 202 -3 223 -20 242 -11 12 -30 21
-43 21 -12 0 -73 -26 -134 -57 -101 -53 -115 -58 -172 -57 -142 2 -267 109
-267 228 0 35 11 67 50 141 51 98 54 121 15 131 -54 13 -276 -66 -435 -156
-107 -60 -128 -65 -198 -45 -49 15 -66 28 -152 117 -93 96 -98 99 -115 82 -54
-54 47 -389 153 -506 49 -55 102 -78 179 -78 80 0 149 -26 224 -85 71 -55 159
-100 237 -120 67 -18 135 -9 203 25 90 47 122 12 168 -182 40 -167 78 -280
137 -409 25 -55 48 -117 51 -137 8 -59 -26 -99 -124 -147 -99 -48 -117 -64
-139 -121 -28 -73 1 -187 82 -325 70 -120 139 -181 293 -259 153 -77 483 -188
819 -277 174 -46 179 -46 337 -47 88 0 250 1 360 3 151 2 228 -1 314 -14 238
-35 462 -115 620 -219 37 -25 129 -103 204 -174 235 -222 280 -234 707 -186
330 37 736 135 1075 259 50 18 158 58 241 88 390 143 779 226 1354 289 168 19
254 23 475 21 149 -1 281 -5 293 -10 37 -14 121 -180 308 -611 132 -303 180
-457 224 -720 22 -128 46 -603 37 -737 -6 -96 -20 -135 -77 -200 -85 -99 -110
-195 -71 -281 48 -105 197 -127 283 -41 38 39 94 156 141 297 51 152 167 631
167 688 0 50 18 7 49 -117 47 -189 41 -296 -30 -496 -49 -139 -41 -233 26
-321 14 -18 93 -84 177 -147 234 -176 314 -263 358 -392 46 -133 51 -404 9
-471 -11 -18 -68 -76 -127 -128 -130 -115 -171 -163 -229 -269 -25 -45 -65
-116 -89 -158 l-45 -77 -62 4 c-137 9 -810 25 -1482 35 -962 15 -2279 3 -3280
-31 -2176 -74 -3585 -241 -3585 -425 0 -184 1340 -346 3505 -425 797 -28 1213
-34 2405 -34 1373 0 1978 12 3005 59 2033 95 3165 277 2852 459 -164 96 -702
185 -1542 257 -137 11 -252 23 -254 25 -9 8 42 195 68 250 16 34 60 103 98
155 85 114 169 253 229 376 83 168 70 246 -54 345 -37 30 -132 106 -212 170
-350 280 -593 538 -756 801 -154 248 -181 379 -125 598 56 217 81 458 62 604
-22 164 -51 231 -162 377 -162 213 -195 360 -129 571 39 125 32 125 124 -2 36
-50 75 -123 105 -198 27 -65 67 -161 88 -213 22 -52 57 -162 77 -245 21 -82
54 -201 73 -264 42 -141 187 -458 257 -566 72 -109 193 -244 253 -283 92 -59
232 -95 373 -96 92 -1 98 0 167 37 206 111 357 337 424 637 23 103 25 249 4
354 -40 209 -200 365 -423 411 -140 29 -240 -9 -296 -113 -55 -104 -54 -256 2
-316 63 -66 142 -73 251 -21 44 21 96 38 130 41 49 6 58 4 76 -16 57 -63 3
-423 -84 -559 -92 -143 -297 -181 -481 -89 -72 35 -113 86 -159 193 -16 39
-51 116 -76 173 -31 67 -62 162 -90 275 -77 307 -186 710 -215 799 -69 206
-159 339 -350 517 -136 126 -146 137 -161 190 -9 31 -30 90 -47 132 -16 41
-35 102 -41 134 -16 84 -4 603 15 672 17 62 51 94 144 135 163 74 232 111 265
144 48 48 46 80 -10 174 -50 83 -53 103 -26 181 59 170 379 837 483 1008 64
104 178 247 318 399 300 328 387 453 433 625 19 74 22 108 22 337 0 296 4 311
98 451 31 46 53 88 50 96 -13 33 -103 43 -178 19z"/>
<path d="M3183 6423 c26 -2 67 -2 90 0 23 2 2 3 -48 3 -49 0 -68 -1 -42 -3z"/>
<path d="M3073 6413 c9 -2 23 -2 30 0 6 3 -1 5 -18 5 -16 0 -22 -2 -12 -5z"/>
<path d="M3008 6403 c6 -2 18 -2 25 0 6 3 1 5 -13 5 -14 0 -19 -2 -12 -5z"/>
<path d="M2968 6393 c7 -3 16 -2 19 1 4 3 -2 6 -13 5 -11 0 -14 -3 -6 -6z"/>
<path d="M2910 6383 c-8 -3 -39 -15 -68 -25 -29 -11 -52 -21 -50 -23 2 -2 39
9 83 25 44 16 73 29 65 29 -8 0 -22 -3 -30 -6z"/>
<path d="M2738 6314 c-39 -21 -35 -28 5 -8 37 19 44 24 31 24 -5 -1 -21 -8
-36 -16z"/>
<path d="M3253 6303 c9 -2 23 -2 30 0 6 3 -1 5 -18 5 -16 0 -22 -2 -12 -5z"/>
<path d="M3198 6293 c7 -3 16 -2 19 1 4 3 -2 6 -13 5 -11 0 -14 -3 -6 -6z"/>
<path d="M3148 6283 c7 -3 16 -2 19 1 4 3 -2 6 -13 5 -11 0 -14 -3 -6 -6z"/>
<path d="M3108 6273 c7 -3 16 -2 19 1 4 3 -2 6 -13 5 -11 0 -14 -3 -6 -6z"/>
<path d="M3045 6260 c-13 -5 -14 -9 -5 -9 8 0 24 4 35 9 13 5 14 9 5 9 -8 0
-24 -4 -35 -9z"/>
<path d="M2962 6233 c-24 -8 -41 -17 -39 -19 4 -5 97 26 97 32 0 6 -11 4 -58
-13z"/>
<path d="M2880 6200 c-8 -5 -10 -10 -5 -10 6 0 17 5 25 10 8 5 11 10 5 10 -5
0 -17 -5 -25 -10z"/>
<path d="M2778 6154 c-38 -19 -68 -37 -68 -39 0 -5 139 62 149 71 14 13 -23
-2 -81 -32z"/>
</g>
</svg>
