<?xml version="1.0" standalone="no"?>
<!DOCTYPE svg PUBLIC "-//W3C//DTD SVG 20010904//EN"
 "http://www.w3.org/TR/2001/REC-SVG-20010904/DTD/svg10.dtd">
<svg version="1.0" xmlns="http://www.w3.org/2000/svg"
 width="1280.000000pt" height="787.000000pt" viewBox="0 0 1280.000000 787.000000"
 preserveAspectRatio="xMidYMid meet">
<metadata>
Created by potrace 1.15, written by Peter Selinger 2001-2017
</metadata>
<g transform="translate(0.000000,787.000000) scale(0.100000,-0.100000)"
fill="#000000" stroke="none">
<path d="M5383 7850 c-137 -45 -351 -223 -554 -460 -162 -190 -303 -383 -512
-699 l-62 -93 -170 -58 c-272 -92 -474 -172 -845 -333 -443 -193 -1111 -516
-1281 -620 -618 -375 -1120 -1052 -1446 -1947 -85 -232 -181 -563 -214 -739
-9 -48 -28 -89 -75 -166 -131 -215 -224 -424 -224 -506 0 -35 31 -69 65 -69
71 0 239 85 643 324 684 404 939 533 1206 611 133 38 217 48 356 42 150 -6
194 -16 462 -106 337 -114 510 -138 776 -107 79 9 154 21 167 26 55 21 23 54
-141 150 -113 65 -164 105 -164 127 0 39 111 51 260 27 167 -27 454 -25 610 4
347 63 687 201 984 399 117 78 270 211 293 256 10 19 148 41 433 69 211 20
930 17 1135 -5 1098 -121 2046 -506 2810 -1142 352 -293 675 -676 675 -802 0
-31 -53 -113 -186 -293 -166 -222 -255 -381 -293 -520 -76 -273 69 -994 234
-1166 61 -64 113 -70 173 -19 47 39 63 94 73 250 16 230 49 307 174 405 98 78
176 183 269 365 80 158 132 202 224 190 26 -4 126 -29 222 -56 201 -56 279
-73 405 -89 207 -26 325 -77 540 -231 77 -56 171 -116 209 -135 38 -18 74 -38
81 -44 10 -9 23 2 57 46 42 56 43 60 42 128 -3 245 -237 630 -532 876 -296
248 -619 390 -1032 455 -57 9 -105 17 -106 18 -1 1 -126 166 -279 367 -693
911 -1306 1737 -1525 2055 -176 256 -308 408 -542 622 -440 402 -920 740
-1376 968 -467 234 -982 362 -1622 405 -312 21 -358 37 -409 143 -17 34 -36
89 -43 122 -17 87 -14 274 7 390 32 182 67 259 173 376 129 145 142 168 101
189 -41 22 -159 22 -226 0z"/>
</g>
</svg>
