<?xml version="1.0" standalone="no"?>
<!DOCTYPE svg PUBLIC "-//W3C//DTD SVG 20010904//EN"
 "http://www.w3.org/TR/2001/REC-SVG-20010904/DTD/svg10.dtd">
<svg version="1.0" xmlns="http://www.w3.org/2000/svg"
 width="670.000000pt" height="1280.000000pt" viewBox="0 0 670.000000 1280.000000"
 preserveAspectRatio="xMidYMid meet">
<metadata>
Created by potrace 1.15, written by Peter Selinger 2001-2017
</metadata>
<g transform="translate(0.000000,1280.000000) scale(0.100000,-0.100000)"
fill="#000000" stroke="none">
<path d="M3683 12658 c-107 -131 -110 -133 -163 -145 -291 -64 -629 -60 -772
11 l-48 23 0 -241 c0 -274 -6 -312 -70 -441 -46 -93 -149 -233 -236 -320 -67
-67 -158 -117 -244 -136 -55 -12 -230 -7 -279 7 -21 6 -23 5 -17 -12 5 -10 11
-74 13 -140 8 -182 -17 -267 -101 -341 -92 -81 -217 -83 -397 -9 -14 6 -14 -1
2 -61 32 -120 19 -275 -30 -372 -61 -118 -310 -292 -703 -488 -210 -105 -197
-92 -219 -232 -22 -146 25 -265 126 -322 53 -30 185 -62 325 -79 346 -42 725
61 1005 274 84 64 127 87 219 115 143 44 325 37 480 -18 45 -16 121 -43 169
-60 135 -48 273 -81 367 -87 101 -7 161 6 405 91 180 62 226 67 379 40 274
-48 397 -194 341 -404 -32 -121 -127 -254 -203 -284 -124 -49 -301 -18 -522
91 -52 26 -98 48 -101 50 -3 1 -9 -35 -13 -80 -17 -206 -82 -353 -210 -479
-45 -44 -101 -89 -126 -101 -67 -33 -192 -36 -349 -9 -68 12 -125 20 -126 19
-2 -2 10 -43 27 -91 74 -222 38 -407 -106 -546 -86 -82 -139 -105 -236 -104
-41 1 -110 8 -153 16 -72 13 -78 13 -74 -2 3 -9 17 -56 33 -106 25 -80 28
-106 28 -230 1 -137 0 -141 -31 -207 -44 -93 -95 -139 -201 -181 -163 -65
-255 -71 -374 -23 -34 14 -63 24 -65 22 -2 -2 5 -24 16 -49 33 -77 53 -194 46
-265 -14 -129 -80 -214 -229 -293 -62 -33 -78 -34 -223 -13 l-41 6 25 -68 c48
-132 40 -285 -20 -384 -52 -85 -174 -191 -274 -238 -48 -22 -72 -27 -139 -27
l-81 0 17 -41 c10 -22 23 -66 30 -96 18 -78 8 -292 -17 -383 -54 -196 -200
-355 -368 -400 -36 -10 -65 -20 -65 -23 0 -2 21 -27 46 -55 68 -76 94 -134 94
-209 -1 -178 -84 -357 -202 -434 l-44 -28 56 -56 c137 -134 160 -318 73 -592
-4 -13 11 -25 64 -51 112 -57 152 -110 189 -252 25 -98 23 -180 -5 -238 -24
-50 -82 -106 -137 -132 -19 -9 -34 -17 -34 -19 0 -2 46 -50 103 -107 118 -119
170 -193 204 -290 52 -150 37 -296 -50 -468 -23 -47 -43 -87 -44 -90 -2 -3 30
-6 70 -6 92 -1 161 -25 235 -80 103 -77 115 -103 162 -336 22 -112 45 -224 51
-249 l10 -45 107 0 c108 -1 188 -18 282 -63 l35 -17 37 -184 c20 -101 38 -185
40 -187 2 -1 78 -10 168 -18 266 -25 448 -55 513 -84 86 -37 170 -133 239
-269 29 -60 59 -123 65 -142 l12 -33 49 35 c97 72 224 104 364 94 72 -6 89
-12 256 -96 l180 -90 37 63 c69 119 182 205 325 250 146 46 163 45 357 -23 94
-34 173 -61 176 -61 2 0 7 31 10 69 8 95 45 171 121 246 66 65 178 133 284
173 85 32 218 37 271 9 19 -9 37 -17 41 -17 4 0 10 62 14 138 3 75 9 169 13
208 l6 72 184 158 184 159 -8 60 c-12 93 -9 302 6 380 18 95 63 230 100 304
l31 60 -174 150 c-95 82 -176 158 -180 168 -4 10 -10 56 -13 103 -8 122 10
216 62 316 l42 82 -74 6 c-91 8 -213 43 -314 89 -85 39 -104 62 -140 170 -16
47 -20 80 -17 139 l3 77 -25 -7 c-14 -4 -83 -7 -155 -6 -113 1 -141 5 -215 28
-56 18 -97 39 -119 59 -44 42 -123 161 -152 232 -12 30 -25 55 -29 55 -3 0
-14 -17 -25 -37 -29 -55 -147 -175 -239 -245 l-80 -60 -66 6 c-100 10 -178 34
-259 77 -55 30 -71 35 -66 22 43 -103 41 -184 -5 -281 -48 -101 -138 -147
-292 -147 l-87 0 25 -33 c57 -74 114 -254 114 -360 0 -112 -84 -218 -196 -247
l-43 -11 130 -97 c79 -60 141 -116 160 -143 65 -95 108 -245 109 -384 0 -53 6
-74 29 -116 67 -117 201 -184 310 -154 62 16 125 79 151 148 31 81 28 132 -10
237 -60 162 -52 345 20 458 58 92 204 128 350 88 41 -12 98 -27 125 -34 95
-25 152 -71 195 -156 25 -51 50 -158 50 -221 0 -39 -4 -48 -27 -61 -16 -9 -83
-48 -149 -87 l-122 -71 28 -84 c95 -280 62 -496 -88 -584 -43 -26 -55 -28
-152 -28 -116 0 -187 19 -312 81 -37 19 -70 34 -72 34 -3 0 -14 -20 -25 -45
-29 -66 -102 -138 -169 -169 -76 -33 -191 -50 -286 -41 l-75 7 -75 127 -76
127 -186 24 -186 24 6 105 c4 58 9 126 12 151 l6 45 -151 75 -151 74 -17 51
c-13 36 -17 80 -16 155 1 127 24 222 86 353 l42 90 -72 73 c-123 126 -187 296
-165 444 14 94 45 153 122 230 71 71 181 136 283 165 32 9 57 20 55 23 -93
178 -117 269 -99 367 18 98 75 186 141 220 133 69 272 72 342 8 16 -15 17 -14
8 18 -24 83 -2 225 55 362 47 110 81 164 107 170 13 3 111 22 218 42 107 20
196 38 197 39 2 1 -2 29 -8 62 -15 78 -6 217 21 331 20 85 25 96 63 129 99 84
243 123 337 90 24 -8 45 -14 47 -12 2 1 8 182 14 402 7 257 15 408 23 423 6
13 28 35 48 49 44 29 77 25 114 -15 22 -24 24 -34 24 -134 0 -296 61 -542 180
-722 50 -77 150 -178 214 -217 39 -23 40 -23 165 -11 446 42 761 224 914 526
26 53 60 156 53 163 -3 2 -42 12 -89 23 -266 59 -511 174 -663 312 -29 26 -73
78 -99 116 -45 66 -47 73 -52 152 -5 75 5 182 23 247 l7 24 -42 -21 c-92 -47
-211 -47 -333 0 -88 33 -101 48 -106 117 -5 68 9 122 45 170 23 31 27 32 91
32 214 0 490 -140 677 -342 66 -71 148 -180 190 -251 15 -26 29 -47 30 -45 2
2 25 62 51 133 25 72 52 133 58 137 36 24 237 -1 309 -39 l29 -15 -6 39 c-15
104 -17 157 -6 253 l11 105 46 47 c58 58 124 95 194 105 62 10 147 0 189 -22
l28 -15 -33 56 c-47 77 -59 144 -52 294 7 179 20 229 71 281 22 23 70 55 105
72 53 25 77 30 140 31 42 0 89 -3 105 -7 28 -8 27 -6 -13 27 -165 138 -221
326 -177 596 34 211 121 300 328 334 l36 7 -55 52 c-67 63 -119 137 -178 254
-60 119 -125 290 -125 327 0 78 100 220 213 303 l49 36 -79 27 c-43 14 -100
39 -127 55 -68 40 -146 122 -183 192 -39 73 -73 207 -73 288 0 119 57 280 149
423 23 34 41 64 41 66 0 2 -44 6 -97 9 -103 6 -203 32 -285 73 -52 26 -113 76
-128 105 -7 12 1 88 25 247 19 127 35 237 35 245 0 12 -27 15 -157 20 -168 5
-239 18 -330 63 -82 40 -129 92 -144 161 -21 93 -16 282 9 387 12 49 21 90 20
91 -2 1 -129 7 -282 13 -153 7 -281 13 -283 15 -2 2 -12 71 -23 153 -11 82
-23 164 -26 182 l-5 32 -44 -30 c-134 -92 -341 -122 -547 -79 l-57 12 -97 158
c-53 88 -101 159 -105 159 -4 0 -56 -60 -116 -132z m-1113 -1575 c67 -22 146
-92 176 -158 18 -38 24 -67 24 -125 0 -96 -28 -158 -98 -221 -116 -104 -278
-105 -393 -1 -70 62 -91 109 -97 207 -6 105 18 165 93 233 84 77 187 100 295
65z"/>
</g>
</svg>
