<?xml version="1.0" standalone="no"?>
<!DOCTYPE svg PUBLIC "-//W3C//DTD SVG 20010904//EN"
 "http://www.w3.org/TR/2001/REC-SVG-20010904/DTD/svg10.dtd">
<svg version="1.0" xmlns="http://www.w3.org/2000/svg"
 width="1111.000000pt" height="1280.000000pt" viewBox="0 0 1111.000000 1280.000000"
 preserveAspectRatio="xMidYMid meet">
<metadata>
Created by potrace 1.15, written by Peter Selinger 2001-2017
</metadata>
<g transform="translate(0.000000,1280.000000) scale(0.100000,-0.100000)"
fill="#000000" stroke="none">
<path d="M5444 12746 c-61 -55 -183 -203 -196 -236 -4 -10 -43 -37 -88 -60
-97 -51 -161 -117 -186 -193 -10 -30 -20 -103 -24 -172 -6 -114 -10 -128 -65
-275 -31 -85 -71 -207 -88 -270 -29 -109 -31 -124 -30 -295 0 -136 6 -218 25
-337 14 -94 20 -159 14 -161 -9 -3 7 -327 21 -417 4 -33 -1 -43 -70 -126 -78
-95 -120 -134 -143 -134 -10 0 -6 -15 13 -55 15 -30 25 -56 22 -59 -2 -2 -71
3 -152 11 l-148 14 -61 -53 c-70 -61 -111 -120 -135 -195 -9 -30 -23 -53 -30
-53 -27 0 -69 -29 -153 -105 -88 -79 -210 -155 -185 -115 3 5 -10 42 -29 82
-19 40 -49 120 -65 177 -17 58 -32 106 -34 107 -22 19 -205 99 -255 111 -82
20 -377 22 -552 4 -445 -47 -650 -119 -1032 -362 -354 -225 -543 -381 -742
-614 -283 -330 -405 -492 -500 -664 -116 -210 -149 -287 -154 -351 -4 -51 -7
-58 -42 -83 -48 -34 -92 -100 -124 -185 -59 -158 -155 -515 -199 -742 -46
-232 -52 -300 -52 -610 1 -497 26 -578 159 -515 64 30 77 44 120 125 29 55 42
67 88 90 101 50 231 239 245 358 3 32 11 52 18 52 7 0 43 9 81 21 58 18 77 30
128 82 60 61 153 192 235 332 23 39 63 96 90 128 27 32 60 87 75 126 24 62 34
74 104 129 42 33 214 194 382 359 283 277 312 302 395 347 93 50 150 91 221
158 37 35 47 39 120 47 43 5 81 7 83 5 3 -2 -19 -77 -47 -167 -83 -264 -164
-569 -157 -594 4 -18 0 -24 -20 -29 -13 -3 -26 -13 -29 -22 -4 -16 -74 -381
-126 -659 -16 -87 -18 -118 -10 -134 7 -11 8 -28 5 -37 -18 -44 -26 -100 -35
-253 -10 -183 -1 -359 25 -500 l17 -86 42 -21 c24 -11 64 -24 90 -27 26 -4 45
-9 42 -12 -2 -3 -40 -14 -83 -25 -43 -11 -81 -25 -85 -31 -27 -42 22 -511 79
-767 31 -144 66 -241 92 -258 19 -13 19 -14 -5 -65 -14 -31 -24 -70 -24 -97 0
-52 51 -208 170 -522 74 -196 85 -218 111 -228 16 -7 31 -22 34 -34 27 -133
55 -197 225 -503 111 -202 185 -305 227 -317 31 -9 31 -10 43 -105 6 -53 20
-122 31 -153 10 -32 19 -62 19 -67 0 -6 -50 22 -110 61 -61 39 -112 69 -114
67 -7 -7 -94 -329 -125 -459 -80 -338 -132 -719 -153 -1132 -12 -253 -2 -466
26 -545 45 -124 45 -124 232 -259 l176 -126 172 21 171 21 45 48 c25 26 65 69
89 96 39 43 53 52 114 68 39 10 120 23 180 30 101 11 110 14 118 36 5 14 30
66 55 116 46 92 49 113 29 181 -5 17 9 31 74 80 45 32 81 64 81 71 0 6 -18
150 -40 318 -33 250 -39 316 -31 363 6 39 5 62 -1 71 -44 54 118 -16 287 -123
89 -56 91 -57 153 -52 l63 5 13 -33 c8 -18 29 -44 47 -58 54 -40 160 -98 194
-104 16 -3 78 -32 137 -66 98 -54 126 -79 98 -89 -10 -3 49 -238 69 -276 5 -9
41 -125 81 -257 120 -403 169 -517 226 -531 37 -10 60 18 90 110 15 44 35 90
45 101 27 30 35 61 69 260 39 234 58 309 116 472 l49 134 208 106 c241 122
295 164 304 231 l6 43 41 -8 c106 -21 158 -5 317 97 59 39 110 70 112 70 2 0
3 -45 3 -100 -1 -99 2 -109 36 -122 4 -2 0 -34 -8 -71 -21 -101 -64 -429 -64
-491 0 -62 7 -70 98 -115 34 -17 62 -35 62 -40 0 -5 -5 -32 -11 -59 -16 -65
-7 -92 46 -152 25 -28 54 -68 65 -90 l20 -40 73 0 c88 0 117 7 117 29 0 9 4
22 9 29 6 9 16 -3 34 -41 21 -42 48 -71 131 -140 57 -47 119 -93 137 -102 19
-10 86 -23 163 -31 207 -22 186 -27 311 77 214 177 241 212 280 363 50 199 41
582 -25 1036 -32 214 -65 372 -150 712 -44 175 -80 320 -80 323 0 13 -22 1
-104 -60 -50 -37 -98 -65 -112 -65 l-23 0 19 33 c10 17 31 74 45 126 26 90 30
97 90 155 44 43 68 76 80 111 10 28 29 65 42 82 32 44 184 349 222 445 17 42
38 118 47 167 l16 90 37 6 c37 6 37 6 73 113 78 229 130 368 149 401 38 64 60
212 43 279 -4 12 -19 29 -35 38 -36 18 -37 30 -4 38 52 13 91 138 165 526 56
298 60 362 27 490 -19 73 -25 85 -42 82 -18 -2 -17 0 5 18 14 11 37 28 52 37
23 14 28 26 34 82 4 36 4 199 1 361 -6 300 -17 394 -50 427 -11 11 -12 24 -5
61 17 86 -9 288 -68 527 -56 225 -53 215 -74 215 -11 0 -20 4 -20 9 0 33 -24
179 -41 244 -11 43 -51 167 -89 275 -38 108 -72 210 -76 225 l-6 28 83 -7 c77
-6 87 -9 119 -39 35 -33 143 -91 253 -136 51 -20 72 -39 159 -136 55 -62 133
-137 174 -168 52 -39 74 -63 74 -78 0 -14 62 -83 193 -213 149 -149 199 -193
221 -196 28 -3 31 -9 68 -118 31 -92 45 -121 72 -145 19 -16 55 -61 82 -100
26 -38 71 -95 99 -126 27 -30 82 -110 120 -178 70 -121 70 -123 141 -161 91
-51 109 -68 178 -173 40 -61 79 -104 131 -147 41 -33 93 -87 116 -120 49 -69
91 -94 193 -110 38 -6 70 -9 71 -8 9 11 27 505 22 613 -10 194 -57 512 -94
630 -19 61 -39 85 -70 85 -23 0 -23 2 -23 103 0 107 -12 179 -29 185 -6 2 -11
12 -11 22 0 22 -72 258 -134 440 -95 277 -250 550 -312 550 -8 0 -14 10 -14
25 0 50 -48 125 -161 255 -31 36 -64 80 -73 97 -22 44 -55 65 -92 57 -27 -5
-33 0 -84 72 -61 86 -183 202 -247 236 -27 14 -46 33 -52 51 -22 62 -172 194
-321 282 -36 22 -71 47 -78 56 -16 23 -86 65 -317 190 l-190 102 -160 32
c-290 59 -597 107 -645 102 -112 -12 -401 -67 -448 -85 -29 -11 -71 -31 -95
-45 -42 -25 -46 -32 -116 -199 -60 -141 -71 -176 -62 -191 10 -16 9 -17 -16
-11 -16 4 -62 39 -104 79 -47 45 -102 85 -146 107 -64 32 -69 37 -61 58 11 29
1 79 -22 117 -9 16 -49 48 -88 71 -39 23 -82 56 -96 74 l-25 32 -110 -12 c-61
-7 -125 -15 -143 -18 l-33 -7 48 50 49 50 -86 62 c-64 47 -96 78 -130 130 -25
38 -55 75 -67 83 -21 13 -21 15 -5 45 19 39 33 129 42 286 5 76 3 121 -3 125
-6 5 -2 72 13 192 26 202 31 431 13 508 -6 26 -38 142 -71 257 -47 163 -62
233 -68 315 -16 204 -88 324 -237 394 -55 26 -67 36 -100 94 -50 86 -145 172
-236 217 -41 19 -78 35 -84 35 -5 0 -37 -24 -69 -54z"/>
</g>
</svg>
