<svg xmlns="http://www.w3.org/2000/svg" viewBox="0 0 300 300"><path d="M51.51 147.89c-.07-.053 3 10.11 9.477 18.243 6.284 8.605 15.887 11.953 17.375 12.097 2.912 1.14 5.345 3.32 5.066 5.91-.205 2.338-3.993 4.084-8.128 2.526-2.202-.167-13.644-7.577-18.12-18.16-5.03-10.18-5.692-20.664-5.67-20.615z"/><path d="M50.9 164.932c-.052-.055 3.272 10.02 9.753 18.176 6.304 8.76 15.854 11.657 17.273 11.57 2.844.92 5.483 2.696 5.544 5.34.12 2.3-3.535 4.617-7.934 3.312-2.4.127-14.366-7.184-18.69-17.847-5.013-10.156-5.95-20.59-5.947-20.55zM57.89 193.843c-.056.01 4.034 5.8 9.502 10.166 5.438 4.48 11.72 7.03 12.762 7.18 1.946.822 2.947 3.475 2.26 5.854-.687 2.38-3.455 3.405-6.16 2.228-1.505-.3-8.215-5.882-12.23-12.297-4.207-6.377-6.175-13.14-6.135-13.132zM60.872 227.756c-.464-.084 12.167 17.408 31.452 22.872 18.93 6.313 38.56-.643 41.62-1.184 6.406-1.59 12.97.522 14.684 5.236 1.686 4.59-3.083 10.396-10.9 12.31-3.46.82-29.08 3.853-49.053-8.162-20.277-11.226-28.108-31.357-27.803-31.072zM55.886 237.728c-.002-.174 3.852 13.43-.504 27.797-3.68 14.765-16.906 25.57-19.163 26.564-4.578 2.824-9.335 2.698-10.25.485-1.002-2.354 1.62-5.706 5.432-8.058 1.914-.952 14.23-7.896 19.776-20.565 6.107-12.27 4.79-26.402 4.708-26.224z"/><path d="M56.883 222.77c-.064-.055 3.515 13.416 10.924 25.064 7.08 12.333 18.69 18.653 20.5 19.01 3.392 2.02 6.157 5.14 5.473 8.78-.5 3.194-6.037 5.312-11.335 2.332-3.133-.717-16.202-13-20.305-27.41-4.995-14.025-5.275-27.812-5.257-27.776zM32.95 177.896c-.018-.103-4.52 10.747-4.433 22.248-.408 11.778 6.038 21.183 7.317 22.294 1.927 2.946 2.86 6.377 1.104 8.31-1.536 1.763-5.847.74-8.52-3.254-1.837-1.498-7.452-15.44-4.368-27.783 2.322-12.308 8.92-21.877 8.9-21.814zM25.97 186.87c-.02-.032-3.004 5.45-4.507 11.413-1.668 6.005-1.298 11.82-1.092 12.616.07 1.72-1.933 3.466-4.373 3.893-2.44.426-4.543-1.43-4.597-4.153-.263-1.402 2.032-8.906 6.006-14.275 3.818-5.548 8.558-9.516 8.563-9.494zM18.133 192.617c.003-.037-3.824 3.345-6.33 7.518-2.684 4.208-3.122 8.467-3.04 9.005-.173 1.146-2.445 2.06-4.922 2.057-2.476-.003-4.23-1.938-3.765-4.305-.03-1.28 3.798-7.115 8.56-9.934 4.65-3.09 9.508-4.353 9.498-4.34zM227.743 221.005c.05-.016-6.53 4.818-15.093 6.596-8.587 2.283-18.235-1.48-19.292-2.684-2.79-1.748-3.747-4.542-2.733-5.502 1.12-1.108 3.45-.38 5.62.956.84.896 7.8 5.227 16.063 4.56 8.102-.31 15.51-3.917 15.435-3.925zM221.765 226.16c.956.688-13.044 11.755-16.122 10.39-1.85.022-3.175-1.2-2.966-2.674.21-1.472 1.388-2.708 2.63-2.703 1.13 1.626 16.765-3.91 16.458-5.013zM218.085 231.842c1.16.162-5.94 13.204-9.4 12.656-1.582.372-2.918-.606-2.97-2.093-.052-1.487.577-2.9 1.42-3.062 1.052 1.536 11.545-6.548 10.95-7.5zM54.888 233.74c-.173-.112.684 8.355-3.894 16.546-4.35 8.394-13.934 13.19-15.46 13.49-3.248 1.038-6.405-.623-6.573-3.11-.173-2.468 1.465-4.678 3.858-5.444 1.13-.292 9.08-1.77 14.554-7.584 5.657-5.602 7.444-14.02 7.516-13.898zM650.142 139.262c5.266 7.32 14.798 6.927 19.826 1.708 8.773-6.184 10.09-18.17 3.744-24.95-5.12-9.132-15.706-14.693-27.176-11.553-6.716 1.043-14.702 4.398-20.075 7.574 4.19-4.807 11.07-10.05 18.213-13.423 12.457-5.697 29.588-.764 37.962 11.042 8.797 12.34 3.203 30.98-9.29 36.823-8.297 5.092-20.575 1.207-23.203-7.22z"/><path d="M652.92 117.08c-2.906-1.565-23.76.942-35.49 14.19-10.06 9.855-15.85 21.687-17.61 25.615-6.163 8.327-9.85 16.974-11.51 21.105-1.56 2.172-2.325 3.69-2.29 3.647-.043.01.483-.61 1.45-1.554-.107.25-.183.415-.205.397.022.025.16-.187.395-.582 2.555-2.456 7.89-6.86 14.502-8.79 9.358-3.228 18.82-.104 20.264.343 3.063.74 6.272-.184 7.22-2.533.92-2.24-1.338-5.28-5.25-6.223-1.708-.65-14.505-1.708-24.075 4.324-4.214 2.377-7.475 5.46-9.812 8.185 3.022-4.784 8.054-11.968 14.682-17.95 10.733-10.82 25.49-13.99 27.688-13.865 4.615-.87 8.353-2.32 8.89-4.72.58-2.468-4.43-5.242-10.392-4.127-3.072-.182-20.15 6.61-29.474 19.66-.144.18-.276.36-.42.536 3.27-4.772 9.947-13.48 18.868-20.054 12.916-10.58 29.31-9.787 31.514-8.687 5.008.49 9.712.437 10.71-2.066.908-2.062-3.132-6.14-9.653-6.85z"/><path d="M606.044 159.25c-.062.007 3.505-3.62 8.832-5.154 5.255-1.66 11.492-.396 12.245.216 1.856.834 2.705 2.563 1.92 3.824-.787 1.262-2.575 1.794-3.975 1.155-.622-.487-4.88-2.652-9.744-2.54-4.85.03-9.347 2.465-9.276 2.5z"/><path d="M615.05 152.895c-.06 0 4-3.065 9.494-3.8 5.444-.87 11.43 1.298 12.08 2.015 1.717 1.1 2.302 2.933 1.338 4.064-.965 1.132-2.81 1.396-4.1.56-.544-.575-4.437-3.343-9.265-3.947-4.803-.685-9.61 1.065-9.546 1.108zM588.497 180.023c-.027.035 3.482-3.474 8.79-4.844 5.39-1.7 11.584 1.172 12.152 1.93 1.655 1.263 1.833 3.305.742 4.252-1.144 1.01-2.85.902-3.972.058-.47-.487-3.777-3.598-8.59-3.57-4.7-.136-9.19 2.174-9.123 2.173zM359.213 262.61c13.715 6.658 28.78 9.982 43.737 10.55 21.396.963 44.16-3.484 61.502-15.34 9.104-5.8 15.96-15.947 14.672-26.75-.86-10.467-9.492-21.022-20.612-21.207-6.324-.09-13.887 2.34-17.676 7.79-3.745 5.89-1.358 13.778 2.233 19.606-3.935-5.552-7.23-13.308-3.567-20.368 4.094-6.57 11.515-9.548 19.004-10.103 13.016-.14 23.26 11.423 24.845 23.572 2.15 12.656-5.734 24.93-15.433 31.746-19.713 12.476-42.928 15.918-65.236 14.272-15.29-1.673-30.25-6.157-43.47-13.77z"/><path d="M465.06 268.13c-.564-.05 16.09-8.28 22.04-23.735 6.132-15.497-3.617-30.975-4.613-33.07-2.35-4.937-2.725-10.062-.023-12.228 2.704-2.193 8.4.625 11.338 6.757 1.3 2.186 9.827 23.904-1.07 41.33-10.526 16.53-28.21 20.557-27.672 20.946z"/><path d="M489.675 255.678c-.172.017 9.146-9.072 11.468-20.84 2.836-11.6-.638-23.26-.92-25.05-.472-3.785 2.186-7.528 6.404-8.956 4.244-1.444 8.98 1.79 9.617 6.882.473 2.35-.023 18.19-7.655 30.256-7.245 12.41-19.214 17.622-18.915 17.708zM510.616 239.723c-.004.02 5.91-6.713 7.833-15.417 2.326-8.516 2.146-17.69 2.29-19.156.318-2.986 2.36-5.298 4.834-5.316 2.487-.02 4.453 2.86 4.095 6.235-.152 1.657-2.355 11.59-7.07 19.94-4.407 8.7-12.092 13.79-11.984 13.713zM583.637 151.524c-.205.086 4.64-15.5 1.647-31.006-2.43-15.755-13.273-27.8-14.847-29.58-3.13-4.033-4.267-8.675-2.157-11.414 2.126-2.78 8.14-1.372 12.056 3.673 2.07 2.165 12.037 19.194 11.21 36.813-.152 17.49-8.198 31.54-7.91 31.514z"/><path d="M594.375 130.89c-.092.03 2.767-10.618 1.623-21.477-.85-10.986-6.27-20.63-7.126-22.08-1.515-3.204-1.526-6.487.372-8.08 1.903-1.614 5.83.203 7.69 4.14 1.125 1.825 5.076 14.317 3.552 26.043-1.163 11.75-6.234 21.46-6.11 21.455zM604.04 115.566c-.004-.002 2.707-6.345 2.52-13.19.124-6.813-1.546-13.632-1.65-14.75-.187-2.275 1.5-4.343 3.93-4.812 2.44-.472 4.798 1.412 5.01 4.06.136 1.303-.4 9.247-2.872 16.295-2.205 7.234-7.01 12.456-6.94 12.396zM731.37 166.057c.093.026-1.732 4.65-1.443 9.48.162 4.847 2.06 9.427 2.346 10.145.414 1.554-.194 3.11-1.536 3.776-1.327.66-3.134-.402-3.633-2.265-.358-.884-1.12-6.69.144-11.91 1.147-5.29 4.25-9.206 4.123-9.226zM725.996 171.435c-1.315-.102-2.583 15.767-1.716 17.15-.067 1.416-1.243 2.536-2.73 2.605-1.484.073-2.727-1.24-2.65-2.82-.88-1.95 5.99-17.753 7.096-16.935zM720.628 176.595c-.472-.224-5.365 11.572-5.815 12.62-.59.993-1.96 1.27-3.078.63-1.12-.64-1.54-1.998-.933-3.018.483-1.114 9.476-10.632 9.826-10.232zM555.492 202.827c-.046.16 8.6-22.665 4.398-46.726-1.468-12.166-5.806-22.805-8.984-33.17-3.01-10.037-3.24-18.802-2.673-21.536.592-5.183 3.902-10.82 8.397-12.345 4.312-1.606 7.035.45 6.838 2.088-1.047 3.834-2.183 5.62-2.798 12.037-.327 1.478-1.03 7.93.583 17.453 1.63 9.038 5.088 22.5 4.9 35.007 1.072 25.83-10.82 47.445-10.66 47.192z"/><path d="M560.477 197.84c-.14.024 7.918-16.866 8.82-35.573 1.598-18.682-3.755-37.222-4.547-40.158-1.37-6.135-.473-11.675 2.708-13.022 3.217-1.37 7.994 3.283 9.547 10.248.946 3.357 3.46 24.655-1.497 43.88-4.274 19.453-15.23 34.65-15.03 34.624zM559.032 275.372c6.445 7.544 18.187 7 25.44 1.85 7.46-5.53 8.063-17.13 2.307-23.745-5.563-6.94-15.724-9.112-23.68-6.06-7.97 2.85-13.624 11.24-21.037 17.067-29.07 23.168-65.47 42.28-103.363 37.866 37.898 2.464 72.212-17.9 99.58-41.86 7.565-5.21 13.16-13.32 23.25-16.876 9.675-3.26 21.21-.14 27.307 8.03 6.368 8.006 4.92 21.01-3.514 26.65-8.062 5.208-20.186 4.956-26.29-2.922z"/><path d="M502.814 292.634c-.035.03 9.997-4.208 22-4.118 12.217-.9 24.907 8.28 25.625 10.783 3.025 3.992 1.574 8.762-1.542 9.85-3.396 1.258-6.792-.18-8.553-2.37-.404-1.256-5.713-9.263-16.42-12.043-10.144-3.103-21.206-2.13-21.11-2.103z"/><path d="M494.406 295.41c-.017.003 7.414-1.647 15.688-.688 8.378.317 16.917 6.537 17.554 8.395 2.166 2.883.926 6.358-1.327 6.975-2.505.762-4.76-.277-5.978-1.762-.225-.828-4.022-6.493-11.363-9.26-6.918-2.98-14.618-3.688-14.574-3.66zM488.39 298.36c-.064-.047 4.626-1.19 9.68.17 5.04 1.238 9.572 4.84 10.043 5.594 1.238 1.42 1.235 3.27.016 4.12-1.223.85-3.022.635-3.998-.496-.41-.63-3.086-4.383-7.06-6.715-3.918-2.414-8.71-2.754-8.683-2.673zM486.262 89.813c.046-.007-10.723-1.634-20.91-7.98-10.89-5.61-16.917-20.065-16.224-22.577-.495-4.983 3.233-8.296 6.46-7.595 3.555.7 5.698 3.702 6.054 6.488-.31 1.282.037 10.884 7.713 18.845 7.033 7.944 16.974 12.893 16.907 12.82z"/><path d="M494.99 89.847c.02.005-7.183-2.466-13.734-7.606-6.98-4.647-11.014-14.41-10.586-16.325-.34-3.59 2.53-5.908 4.775-5.256 2.533.66 3.916 2.723 4.176 4.624-.24.822.042 7.636 4.855 13.83 4.344 6.153 10.538 10.778 10.515 10.733zM503.654 90.58c.03.07-4.566-1.4-8.166-5.203-3.648-3.685-5.635-9.122-5.643-10.012-.314-1.855.652-3.432 2.138-3.52 1.483-.087 2.906 1.034 3.15 2.508.02.75.34 5.35 2.512 9.412 2.082 4.105 5.99 6.898 6.01 6.814zM268.292 134.018s8.875-11.294.806-27.43c-8.067-16.138 8.07-20.978 11.296-34.692 3.228-13.716-8.232-12.197-10.488-21.784-3.228-13.714-13.715-29.85-33.885-27.43 0 0 19.364 2.42 8.07 13.716-11.296 11.294-4.843 30.657 3.226 41.95 8.068 11.297 17.75 25.013 19.362 40.34l1.614 15.33zM214.663 62.594s-8.068-31.464-8.068-39.532S196.915 3.7 183.198 6.12c-13.715 2.42-13.715-6.454-19.363-3.227 0 0 8.068.807 11.295 14.522 3.228 13.716 14.523 22.59 22.59 28.238 8.07 5.647 14.522 11.294 16.943 16.94z"/><path d="M204.174 54.952S177.55 35.59 161.414 13C145.28-9.59 132.37 4.124 127.53 4.124s-18.556 0-21.784-2.42c0 0 14.522 25.392 56.475 39.107 41.954 13.715 41.954 14.14 41.954 14.14zM114.722 49.255s-34.238-8.975-47.202-.997c-15.174 9.337-19.613 2.326-28.92 21.938 0 0 14.293-9.972 20.277-2.992 5.983 6.98 13.96 3.99 30.914-6.98 16.953-10.97 24.932-10.97 24.932-10.97zM262.688 119.7s-19.233-41.292-35.76-52.007c-16.53-10.712-5.79-26.01-15.316-44.663-6.075-11.893-2.735-8.782-8.667-16.644 0 0 19.84 13.016 22.057 7.287 4.132-10.675 8.376-2.674 6.362 19.955-1.73 19.437 1.005 28.22 12.983 47.168 11.978 18.95 17.446 36.515 18.34 38.905z"/><path d="M151.62 41.276s-21.94-5.982-31.912-15.955c-9.973-9.97-17.95-13.96-34.903-6.978 0 0-28.92 4.986-10.97 10.97 17.95 5.982 11.967 25.926 77.784 11.964zM47.146 87.825c-6.782 5.865 14.105-1.642 21.604-13.44 0 0-14.352-6.72-22.335 2.712-3.16 3.736 3.82 8.058.73 10.728zM56.217 88.812s-8.31 4.652-10.636 4.652c-2.327 0 .998 1.33-2.327 4.654-3.323 3.325 8.643 4.654 12.964-9.306zM47.97 102.255s-10.95 4.378-7.478 8.863c0 0 4.475 1.148 7.48-8.863zM351.062 191.358c.073-3.25-9.746-13.633-17.782-23.617-7.888-9.802-15.985-21.958 2.898-35.8 15.83-11.6 9.63-15.664 9.63-15.664s15.61 13.023 16.375 23.654c1.26 17.468-10.595 28-11.12 51.428z"/><path d="M353.714 192.73s.005-22.442 11.17-31.17c11.168-8.727 28.795-16.31 25.584-28.85 0 0 12.228 10.746-.503 22.43 0 0 11.496 21.205-2.617 27.87-14.116 6.667-30.566 6.298-33.634 9.72zM363.527 211.053s12.327.98 28.478-10.03c16.15-11.01 28.426-15.763 36.635-2.78 0 0-7.402 1.61-12.58 9.73-6.412 10.06-36.08 24.77-52.533 3.08z"/><path d="M365.52 217.536s13.214 11.22 24.432 9.475c9.854-1.533 27.424-2.992 22.438 19.445 0 0-4.487 16.453-8.477 22.936 0 0 0-10.968-6.98-12.463-6.98-1.497-26.427.497-26.427-22.438 0-.002 0-10.722-4.985-16.954zM359.29 203.573s-.905-10.468 11.218-11.966c20.193-2.492 30.665-10.222 41.135-22.937 0 0 1.557 18.813-25.428 32.66-18.948 9.723-16.455 2.243-26.926 2.243zM753.178 110.81c.7-.857.236-5.718.17-10.087-.065-4.297.304-9.263 8.295-9.03 6.695.197 5.88-2.195 5.88-2.195s1.472 6.778-.555 9.8c-3.332 4.97-8.73 5.313-13.79 11.513z"/><path d="M753.61 111.737s4.71-6.04 9.545-6.048c4.84-.006 11.173 1.65 12.94-2.402 0 0 1.035 5.46-4.84 5.936 0 0-1.356 8.122-6.552 6.957-5.205-1.17-9.554-4.72-11.093-4.443zM752.403 118.73s3.113 2.85 9.775 3.272c6.657.426 10.957 1.725 10.442 6.94 0 0-2.328-1.12-5.43-.02-3.834 1.362-14.908-.9-14.787-10.192z"/><path d="M751.58 120.893s1.205 5.793 4.59 7.675c2.973 1.656 8.012 4.952 1.96 9.946 0 0-4.667 3.488-7.094 4.396 0 0 2.305-2.955.732-4.82-1.563-1.87-7.215-5.412-2.403-11.585 0 0 2.252-2.89 2.214-5.612zM752.832 115.824s1.95-3.008 5.532-.866c5.956 3.57 10.4 3.683 15.884 2.457 0 0-3.524 5.392-13.698 3.453-7.138-1.356-4.9-2.847-7.718-5.044zM116.47 142.176c-2.788-10.545-13.59-18.646-24.258-16.5 10.814-1.55 20.638 7 22.696 17.005 2.78 10.25-3.565 20.63-12.99 24.255-6.386 3.29-13.97 4.44-20.922 2.656 11.724.552 23.558-11.256 19.268-24.012-2.2-6.178-7.78-11.59-14.603-12.024-6.626-.464-13.405 3.227-15.892 9.412-3.785 8.914 4.252 18.673 13.003 17.465-8.905.38-15.1-9.415-11.222-16.698 5.09-11.54 23.28-9.168 25.64 3.07 4.474 11.682-8.88 24.103-20.97 19.876-1.234-.274-2.384-.755-3.5-1.326-.956-.534-1.883-1.114-2.778-1.737-.33-.296-.653-.606-1.007-.876l-1.076-.92-.044.054c-5.938-5.493-10.397-12.727-13.583-20.243 3.595 9.828 9.22 19.41 18.01 25.793 8.757 6.794 21.295 7.03 31.28 2.408 10.244-4.58 16.64-16.986 12.95-27.654zM768.89 53.503c-.596-1.34-2.55-1.687-3.88-1.245-.748.163-2.925 1.196-5.202 3.042-2.36 1.923-4.7 4.17-7.577 5.875-.796.534-1.604.985-2.405 1.38.713-.5 1.433-1.046 2.136-1.696 4.038-3.477 6.617-8.87 6.87-9.77.65-1.843.164-3.56-.848-3.625-.99-.066-2.04 1.05-2.58 2.59-.223.737-1.563 5.618-4.656 9.466-1.432 1.913-3.172 3.41-4.588 4.458-.7.207-1.37.373-1.985.5 12.773-14.993 7.72-18.44 7.72-18.44-6.89-2.952-8.35 12.398-8.647 17.783-.377-.51-.764-1.088-1.146-1.713-.278-1.645-.467-3.696-.212-5.855.408-4.903 3.002-9.346 3.374-10.027.734-1.47.82-2.98.07-3.62-.755-.652-2.373.252-3.264 2.044-.48.82-2.58 6.543-2.02 11.805.053.745.155 1.452.28 2.133-.315-.81-.603-1.658-.826-2.56-1.004-3.25-1.173-6.554-1.59-9.617-.414-2.95-1.353-5.196-1.81-5.807-.73-1.222-2.373-2.2-3.755-1.687-1.312.46-1.568 1.487-1.273 1.846.965.756 1.146 1.008 1.956 2.384.227.306 1.132 1.77 1.852 4.374.672 2.48 1.412 6.334 2.898 9.42 1.056 2.595 2.545 4.684 3.966 6.27.276.637.53 1.158.737 1.55-1.306.17-2.127.158-2.11.133-.036.018.845.186 2.298.22.158.286.266.476.25.476.01.003-.05-.193-.134-.475.128.002.26.003.397.003-.012.33-.015.52-.015.52.157-.18.302-.35.456-.526h.027c.124.108.243.213.36.312-.29.174-.49.29-.48.294-.012-.008.22-.084.577-.21 1.108.932 1.873 1.39 1.853 1.36.002.022-.62-.52-1.475-1.5.26-.096.563-.217.91-.362 2.162-.21 4.798-.763 7.473-2.055 3.13-1.28 6.256-3.54 8.403-4.88 2.268-1.395 3.886-1.875 4.244-1.955.842-.202 1.1-.36 1.438-.515.417-.15.943.13 1.44.04.463-.047 1.07-.893.498-2.137zm-26.41 10.493c.232.237.46.458.68.665-.163.027-.33.053-.483.075-.06-.212-.126-.458-.196-.74zm1.867 1.222c-.03-.036-.068-.087-.1-.124.103-.005.217-.015.326-.02-.075.047-.16.1-.226.144zM129.71 106.544c-.803.015-1-.04-1.982-.405-.242-.062-1.31-.438-2.752-1.468-1.368-.985-3.34-2.65-5.374-3.608-1.61-.888-3.23-1.334-4.608-1.557-.407-.213-.756-.374-1.023-.49.593-.624 1.018-.96 1.02-.94.012-.025-.507.255-1.262.837-.2-.082-.333-.135-.325-.142-.006.003.107.08.267.19-.063.05-.137.114-.204.168-.122-.162-.21-.276-.21-.276-.006.162-.004.298-.01.458-.005.006-.01.01-.017.015-.104-.004-.22-.015-.314-.017.075-.21.13-.35.123-.35.01 0-.08.133-.21.346-.95-.018-1.528.065-1.504.074-.01-.012.53.01 1.37.153-.096.163-.206.36-.327.586-1.016 1-2.123 2.353-2.952 4.11-1.068 1.95-1.727 4.397-2.27 5.967-.58 1.647-1.207 2.563-1.36 2.755-.343.448-.408.636-.52.854-.15.252-.534.324-.75.58-.215.212-.175.895.63 1.292.86.438 2-.193 2.496-.97.314-.392 1-1.817 1.396-3.7.41-1.958.675-4.073 1.44-6.132.183-.595.407-1.148.65-1.675-.154.544-.292 1.113-.383 1.727-.623 3.443.29 7.26.536 7.826.427 1.208 1.387 1.882 1.928 1.498.535-.377.606-1.38.247-2.39-.19-.467-1.525-3.513-1.537-6.754-.06-1.563.208-3.043.497-4.164.276-.403.554-.772.82-1.096-.318 12.912 3.673 12.615 3.673 12.615 4.746-1.346-.878-9.796-2.942-12.65.405.105.84.24 1.297.402.822.725 1.766 1.693 2.528 2.9 1.818 2.672 2.332 6.01 2.424 6.513.23 1.052.813 1.858 1.457 1.875.66.023 1.11-1.11.823-2.393-.095-.615-1.39-4.405-3.85-6.857-.336-.36-.683-.68-1.03-.975.5.28.998.596 1.485.965 1.855 1.242 3.308 2.858 4.786 4.25 1.434 1.335 2.84 2.09 3.326 2.216.876.323 2.12.14 2.613-.694.478-.774.183-1.406-.116-1.468zm-16.88-6.99c.03.006.07.018.102.023-.052.046-.107.106-.16.155.02-.058.04-.126.058-.177zm.84-.203c.068-.076.145-.17.21-.24.123.086.262.187.42.307-.22-.026-.43-.05-.63-.066z"/><path d="M541.527 118.63c-13.12-16.93-34.242-29.356-56.244-26.608-10.84 1.275-20.806 6.412-28.244 14.297-7.067 8.46-8.486 20.185-5.83 30.213 2.06 10.382 11.628 18.673 21.97 18.724 10.46.436 18.16-12.304 14.06-21.007 3.496 8.98-4.712 20.398-14.012 19.393-9.548-.836-17.442-8.176-18.867-17.835-1.97-9.252.076-19.672 6.292-26.25 4.746-4.53 11.096-8.103 17.767-9.886-2.875 1.535-5.754 4.038-7.905 8.146-2.385 5.462-1.75 14.052 4.305 17.917 7.054 3.96 12.33-.758 12.75-.983 3.965-3.21 4.03-7.323 2.107-8.683-2.05-1.496-5.386-.132-7.522 1.524-.678.51-2.058 2.063-3.622 1.54-2.615-.43-4.413-5.02-3.734-9.976 1.286-5.87 6.52-9.042 10.426-10.633.216-.015.432-.055.648-.066 18.963-1.45 37.08 10.392 47.778 25.836 7.666 10.75 11.438 23.92 12.26 37.195-2.844-15.136-10.822-29.073-24.11-37.687-.083-.883-.546-3.606-3.174-3.638-3.134-.04-5.028-.924-5.184-3.226-.14-2.135-1.196 10.255 6.407 7.98 16.867 10.43 25.267 29.736 25.27 49.318 0 .145-.01.288-.012.432-2.2-14.142-8.86-27.403-20.742-35.62-.188-.977-.768-2.578-2.624-2.598-2.664-.035-4.278-.788-4.41-2.743-.118-1.83-1.022 8.83 5.565 6.742 12.08 8.157 18.683 21.88 20.505 36.475-3.413-9.4-9.276-17.75-17.79-23.31l-.097.146c-.243-.82-.81-1.81-2.166-1.83-2.31-.024-3.71-.68-3.818-2.375-.106-1.6-.913 7.892 5.042 5.77 10.56 6.9 16.934 18.452 19.334 30.958-12.083 52.59-64.57 90.943-118.167 93.448-23.12 1.32-47.12-3.027-67.105-13.86-5.648-4.64-12.637-11.243-16.978-18.406-1.116-2.648-2.285-5.31-3.496-7.973-.832-3.278-.866-6.566.273-9.743 6.316-17.616 23.603-.995 11.967 2.327 0 0 9.97 1.994 11.3-8.31 1.332-10.308-10.302-12.964-12.63-11.635 0 0 8.312-26.593-17.62-27.59 0 0-11.3.997-9.97 10.637l.073.127c.343 2.23 2.253 3.943 4.58 3.943 2.572 0 4.656-2.082 4.656-4.652 0-.333-.04-.658-.106-.972-.012-.358-.078-.726-.23-1.105 0 0 10.638-3.656 12.44 8.76-8.3 6.673-12.087 14.35-12.674 22.18-12.017-22.228-27.773-42.645-48.193-53.407-9.196-20.042-17.26-41.427-29.684-61.523-15.21-28.265-44.412-53.7-77.928-59.646-67.86-16.466-139.17 40.65-138.467 109.22-.29 39.845 25.78 82.698 67.455 89.063 19.912 3.774 42.833-6.48 50.096-26.264 3.288-9.834.53-21.706-8.453-27.96-10.038-5.753-21.04 1.43-26.49 8.742 5.923-7.116 16.96-13.21 25.75-7.396 7.73 6.096 9.736 17.007 6.28 25.646-7.663 17.423-28.472 25.572-46.273 21.16-36.818-7.575-58.514-47.73-56.088-82.946.452-35.08 22.603-66.045 52.204-82.708-5.032 5.24-7.845 13.64-2.044 20.303 7.654 9.394 22.686-1.392 17.283-10.252 3.61 9.554-10.644 15.93-14.864 8.016-5.803-4.99-3.71-13.448 1.42-19.076C123.45 63.02 148.28 58.92 171.65 65.82c27.562 6.476 48.52 24.94 62.596 50.13-20.146-26.113-50.25-44.202-83.615-44.21-2.834-.004-5.686.128-8.558.397l.01.096c-1.62-1.438-4.514-3.178-7.602-1.008-4.688 3.288-8.45 4.007-11.134.753-2.665-3.227 10.887 19.35 19.848 2.08 2.49-.208 4.972-.327 7.438-.327 37.665-.007 71.303 23.66 90.55 55.968-18.57-22.17-44.58-37.954-73.48-37.973-.278 0-.557.016-.834.02-.78-.922-3.958-4.253-7.414-1.826-3.985 2.793-7.185 3.405-9.468.64-2.184-2.647 8.46 15.117 16.053 3.2.554-.013 1.108-.04 1.662-.04 28.527-.015 54.383 15.884 72.708 38.18-15.33-12.155-33.79-19.887-53.396-19.908-.953 0-1.908.03-2.863.068-1.153-1.08-3.384-2.567-5.768-.894-3.454 2.422-6.226 2.952-8.204.556-1.92-2.328 7.6 13.56 14.195 2.326.88-.032 1.758-.06 2.64-.06 22.206-.023 43.055 10.278 59.35 25.75.03.04.057.08.084.12 3.273 7.32 6.325 14.857 9.42 22.48-1.807-.15-3.633-.245-5.497-.25-3.553 0-7.213.292-10.964.862.01-.5-.006-.794-.016-.77.015-.012-.025.29-.128.793-.264.04-.53.086-.795.13-2.08-2.69-5.955-6.664-12.042-9.32-4.568-2.34-10.466-3.78-14.225-4.97-3.95-1.27-6.064-2.643-6.497-2.975-1.034-.757-1.48-.903-1.996-1.135-.582-.33-.676-1.175-1.25-1.648-.483-.473-2.183-.383-3.354 1.377-1.287 1.884.01 4.382 1.815 5.47.895.688 4.266 2.183 8.832 3.054 4.74.897 9.913 1.478 14.834 3.155 4.143 1.16 7.526 3.003 10.092 4.784-2.294-1.38-5.226-2.858-8.67-3.946-8.396-2.977-18.646-3.598-20.358-3.514-3.474.06-6.413 1.517-6.358 2.93.054 1.4 2.494 2.283 5.6 2.23 1.52-.068 11.06-.778 19.688.816 5.29.794 9.837 2.597 12.626 3.898-.11.02-.22.034-.33.054-2.48-1.228-6.466-2.854-11.424-3.503-8.377-1.365-18.033.644-19.485 1.176-3.095.942-4.99 3.04-4.167 4.225.81 1.176 3.27 1.328 5.85.542 1.207-.42 9.053-3.342 17.077-3.37 4.953-.17 9.446.816 12.187 1.587l.04.216c-31.8-.668-31.944 8.077-31.944 8.077 2.265 10.636 25.534-2.542 32.538-6.78-1.965 2.043-5.446 5.27-9.966 7.653-7.035 3.985-15.42 5.115-16.68 5.31-2.66.515-4.79 1.784-4.986 3.203-.2 1.437 2.49 2.425 5.73 1.794 1.545-.206 11.228-3.043 17.874-8.438 4.754-3.612 7.577-7.738 8.903-9.926.1-.018.202-.033.302-.05-.01.028-.017.057-.025.085-1.598 2.437-4.92 7.005-9.768 10.9-6.748 5.793-15.58 9.927-16.967 10.61-2.79 1.49-4.53 3.45-3.903 4.702.635 1.268 4 1.1 7.13-.58 1.58-.763 10.415-6.436 16.244-13.315 2.422-2.668 4.216-5.413 5.515-7.767-1.358 2.926-3.4 6.324-6.463 9.507-3.508 4.065-7.853 7.245-11.64 10.487-3.642 3.137-5.843 6.22-6.264 7.285-1.004 1.922-.847 4.645 1.098 5.727 1.812 1.047 3.44.403 3.662-.252.16-1.765.335-2.19 1.477-4.342.204-.536 1.38-2.878 4.27-6.042 2.765-2.993 7.34-7.313 10.187-11.77 4.326-5.93 5.62-11.928 5.99-15.324l.21-.036c.592.627.903 1.03.87 1.034.036.016-.17-.403-.597-1.08 3.64-.55 7.183-.826 10.622-.826 2.156-.006 4.26.13 6.342.33 5.495 13.517 11.204 27.267 18.613 40.543-17.722-.928-36.28 5.278-46.577 16.77-16.045 15.06-13.17 34.795-11.893 38.565 5.563 20.057 24.433 22.72 25.173 17.782 1.75-4.766-5.63-12.11-7.793-22.27-.472-2.112-3.755-12.72 5.33-23.475 8.012-11.03 24.416-17.883 41.976-16.83.197.32.402.64.603.958-11.55 1.092-22.622 6.125-30.327 16.356-7.816 10.834-5.347 27.77 5.754 34.797 10.494 7.963 24.64 5.807 34.674-.454-10.703 5.53-24.146 6.246-33.072-1.78-9.28-7.172-9.908-21.242-2.66-29.73 5.907-9.487 16.13-14.805 27.37-16.423.44.688.888 1.372 1.336 2.055-3.59.61-7.065 1.826-10.203 3.815-6.09 4.075-9.276 11.02-9.276 18.08 0 .664.06 1.327.116 1.99-1.628.398-2.69 2.04-2.415 3.99.486 2.355 2.737 3.683 4.38 2.725 1.722-.976 2.8-2.574 2.488-3.974-.2-1.52-1.73-2.73-3.46-2.82-.054-.638-.113-1.275-.113-1.912 0-6.77 3.053-13.39 8.822-17.246 3.132-1.98 6.634-3.17 10.267-3.73.526.798 1.045 1.603 1.583 2.397-3.384 3.14-5.607 7.316-5.62 12.118 0 1.276.177 2.592.508 3.934-1.406.643-2.19 2.21-1.822 3.89.527 1.897 2.464 2.95 4.3 2.368 1.84-.582 2.932-2.422 2.462-4.103-.343-1.61-2.143-2.67-3.98-2.43-.31-1.255-.47-2.48-.47-3.66.01-4.41 2.058-8.306 5.205-11.27 13.036 19.104 28.962 36.704 48.723 49.88 2.462 1.67 4.987 3.206 7.536 4.676-1.183-.265-2.374-.52-3.582-.75-17.544-4.067-35.364 5.52-37.225 8.026-5.194 3.88-6.8 9.256-5.75 9.833 1.47.996 4.675-2.38 9.112-5.626 1.512-2.03 16.45-11.955 33.488-9.57 3.617.396 7.17.975 10.54 1.625.524.263 1.04.547 1.57.802-1.513-.256-3.07-.448-4.678-.54-13.788-1.878-27.924 4.976-29.45 7.09-4.144 3.005-5.55 7.266-4.467 7.968 1.35 1.004 4.273-1.223 7.727-3.682 1.168-1.69 12.754-9.01 26.08-8.687 3.606-.175 7.08.19 10.244.797-.516-.004-1.032-.007-1.556.015-11.43-.444-22.385 6.01-23.86 7.415-3.047 2.88-4.325 6.167-3.135 6.998 1.237.887 4.1-.46 6.55-2.836 1.214-1.064 9.78-7.865 20.616-8.888 3.03-.52 6.005-.56 8.72-.363 2.022.716 4.06 1.378 6.11 1.99.754.338 1.165.527 1.162.474 0 .045-.236-.083-.643-.32 18.215 5.387 37.417 6.91 56.127 5.252 62.516-5.035 122.008-52.557 130.25-116.64 1.486-21.79-2.977-44.19-16.68-61.75zm-225.67 109.307c6.87 5.252 12.457 11.5 16.517 17.232.707 1.03 1.356 2.04 1.982 3.036-6.71-6.15-12.846-12.97-18.5-20.27zm22.812 24.07c-1.055-2.565-2.33-5.348-3.91-8.307-5.298-9.817-15.162-22.346-29.063-30.154-4.3-6.66-8.286-13.574-11.987-20.66-3.738-6.346-7.088-12.974-10.275-19.773 19.75 11.384 35.09 32.188 46.758 54.564.606 9.113 5.233 18.22 11.86 25.996.21.517.412 1.034.616 1.55-1.354-1.045-2.694-2.112-4-3.215z"/><path d="M749.326 104.862s-3.25-2.104-4.912.77c0 0-.28 1.65.82 2.08 0 0 1.813.262 2.153-.91 0 0 3.63 1.246 1.51 4.967-4.998.074-8.454 2.457-10.52 5.83-9.02-29.59-42.672-45.99-71.855-40.307-8.91 1.076-17.16 3.882-24.736 7.906 2.58-1.756 5.205-3.447 7.927-4.99 30.45-20.824 73.093-24.657 106.122-4.933-32.02-21.4-76.368-19.983-109.297.45-16.925 10.778-30.678 25.596-40.71 42.557-2.796 3.912-5.366 7.91-7.703 11.91-15.14 26.426-24.4 54.728-38.13 80.453-12.587 26.32-32.4 48.44-56.98 63.958-29.397 19.56-66.13 28.576-101.818 23.892 35.355 6.726 73.43-.114 105.087-18.692 26.005-15.336 47.735-38.597 61.46-65.5 14.86-26.268 24.99-54.6 40.26-79.238 13.4-23.8 32.984-45.31 60.312-49.237 16.308-3.457 33.993.665 47.02 10.62 1.083 2.528 1.716 5.206 1.723 7.92 0 2.672-.593 5.372-1.883 8.002-1.888-.688-4.13.07-4.947 1.807-.977 1.78-.333 4.112 1.49 5.206 1.814 1.088 4.21.374 5.314-1.647.863-1.81.464-3.773-.896-4.834 1.375-2.794 2.018-5.686 2.018-8.535-.005-2.23-.406-4.43-1.104-6.546 1.02.847 2 1.737 2.952 2.66 3.072 5.076 4.754 10.924 4.754 16.79 0 3.46-.615 6.914-1.824 10.227-1.752-.372-3.657.403-4.395 1.972-.98 1.78-.335 4.113 1.488 5.207 1.814 1.087 4.208.373 5.313-1.648.96-2.01.36-4.2-1.382-5.143 1.256-3.445 1.896-7.03 1.896-10.617 0-4.792-1.096-9.554-3.108-13.936 4.318 4.894 7.702 10.654 9.77 17.175 5.84 17.407.16 38.474-13.65 51.544-6.718 6.224-16.25 12.417-25.457 8.064-9.273-4.103-10.29-17.452-4.578-25.423-6.107 7.54-6.2 21.575 3.837 26.858 10.142 5.355 21.053-.956 28.325-7.066 14.755-12.56 22.462-33.355 18.356-53.01.567-1.267 1.33-2.32 2.375-2.98 5.396-3.42 6.563 4.68 2.735 3.136 0 0 2.266 2.628 4.783.135 2.523-2.5-.054-5.65-.96-5.784 0 0 7.818-5.416 1.043-11.124zM642.545 74.87s-9.462-15.47 5.666-28.575C663.34 33.19 662.7 29.912 658.953 25.59c0 0 14.543.73 12.64 10.163-1.352 6.71 11.212 10.178-29.047 39.118z"/><path d="M657.875 66.872s18.614-14.626 22.27-25.263c3.656-10.637 12.633-5.652 14.96-13.96 0 0 15.016 25.318-6.982 28.917-18.282 2.992-30.248 10.305-30.248 10.305z"/><path d="M696.1 56.567s11.635-5.98 12.63-11.633c0 0 3.99 1.662 5.984-3.325 1.995-4.987 6.98 15.954-18.613 14.957z"/></svg>